<svg id="Layer_1" data-name="Layer 1" xmlns="http://www.w3.org/2000/svg" viewBox="0 0 1024 1024"><defs><style>.cls-1{fill:#f29100;}.cls-2,.cls-5,.cls-9{fill:none;}.cls-3{fill:#d9d9d9;}.cls-4{fill:#eb6608;}.cls-5,.cls-9{stroke:#b1b1b1;stroke-miterlimit:10;}.cls-5{stroke-width:1.59px;}.cls-6{fill:#e89f3c;}.cls-7{fill:#009ee2;}.cls-8{fill:#2a84ae;}.cls-9{stroke-width:1.39px;}.cls-10{fill:#d10a11;}.cls-11{fill:#ba181c;}.cls-12{fill:#009540;}.cls-13{fill:#037c34;}.cls-14{fill:#467d8c;}.cls-15{fill:#315e6d;}.cls-16{fill:#bd1622;}.cls-17{fill:#ef8130;}.cls-18{fill:#e26b1b;}.cls-19{fill:#f29a57;}.cls-20{fill:#ed863a;}.cls-21{fill:#3c3c3b;}.cls-22{fill:#232323;}.cls-23{fill:#fff;}.cls-24{fill:#846541;}.cls-25{fill:#e8b2c8;}.cls-26{fill:#98794d;}.cls-27{fill:#b69f7e;}.cls-28{fill:#876844;}.cls-29{fill:#dda6c0;}.cls-30{fill:#1d1d1b;}.cls-31{fill:#1d70b7;}.cls-32{fill:#826543;}.cls-33{fill:#d0995c;}.cls-34{fill:#f1c300;}.cls-35{fill:#e1a87a;}.cls-36{fill:#cececd;}.cls-37{fill:#e95724;}.cls-38{fill:#bf8954;}.cls-39{fill:#f3cd0d;}.cls-40{fill:#1d1f1c;}.cls-41{fill:#dcdddd;}.cls-42{fill:#b7b7b7;}.cls-43{fill:#ea6347;}.cls-44{fill:#d74417;}.cls-45{fill:#e0b900;}</style></defs><path class="cls-1" d="M806.82,857.16A35.87,35.87,0,0,1,795.89,883Q746.74,938,697.55,993.12l-1.95,2.17c-1,1.15-2.05,2.32-3.08,3.47a52,52,0,0,1-37.38,15.77H217a2,2,0,0,1-2-2v-6.07a2,2,0,0,1,2-2H649.35c27.63,0,50.34-20.69,53-47.15.15-1.69.23-3.39.23-5.1v-4c0-29.18-24.08-52.84-53.8-52.84H217a2,2,0,0,1-2-2V887a2,2,0,0,1,1.31-1.85l178.91-63.83a2.08,2.08,0,0,1,.66-.11H770.82a36,36,0,0,1,36,36Z"/><path class="cls-2" d="M799.19,879.3l-3.3,3.69"/><path class="cls-3" d="M702.54,948.22v4c0,1.71-.08,3.41-.23,5.09-2.62,26.47-25.33,47.16-53,47.16H224.28V895.38H648.74C678.46,895.38,702.54,919,702.54,948.22Z"/><path class="cls-4" d="M806.82,857.16A35.87,35.87,0,0,1,795.89,883Q746.74,938,697.55,993.12l-1.95,2.17c-1,1.15-2.05,2.32-3.08,3.47a52,52,0,0,1-37.38,15.77H217.8a2.73,2.73,0,0,1-2.73-2.73v-4.55a2.73,2.73,0,0,1,2.73-2.73H649.35c27.63,0,50.34-20.69,53-47.15.15-1.69.23-3.39.23-5.1v-4c0-25.71-18.69-47.12-43.46-51.86l107.1-74.71a2.75,2.75,0,0,1,1.57-.49h3.07a36,36,0,0,1,36,36Z"/><path class="cls-5" d="M224.28,918.36H658.9"/><path class="cls-5" d="M224.28,939.22H658.9"/><path class="cls-5" d="M224.28,960.05H658.9"/><path class="cls-5" d="M224.28,981.54H658.9"/><path class="cls-6" d="M230.78,904.89v.69h-.4C230.53,905.35,230.65,905.12,230.78,904.89Z"/><path class="cls-7" d="M228,787.13A31.52,31.52,0,0,0,239.37,809l93.76,89.49,1.86,1.77,2.95,2.82a45.64,45.64,0,0,0,33.81,11.18l383.38-30.65a1.73,1.73,0,0,0,1.59-1.86l-.43-5.31a1.72,1.72,0,0,0-1.86-1.59L376.11,905.07c-24.18,1.93-45.5-14.59-49.64-37.56-.25-1.47-.44-3-.56-4.45l-.28-3.54C323.58,834,343,811.6,369,809.52l377.79-30.2a1.73,1.73,0,0,0,1.58-1.87l-.45-5.65a1.73,1.73,0,0,0-1.28-1.53l-161-43.34a1.69,1.69,0,0,0-.59,0L257,753.11a31.57,31.57,0,0,0-29,34Z"/><path class="cls-2" d="M236.23,806l3.14,3"/><path class="cls-3" d="M325.62,859.52l.29,3.54c.12,1.5.31,3,.56,4.44,4.14,23,25.46,39.5,49.64,37.56l372-29.74-7.63-95.5L369,809.52C343,811.6,323.58,834,325.62,859.52Z"/><path class="cls-8" d="M228,787.13A31.52,31.52,0,0,0,239.37,809l93.76,89.49,1.86,1.76,2.95,2.83a45.64,45.64,0,0,0,33.81,11.18l382.71-30.59a2.41,2.41,0,0,0,2.2-2.59l-.31-4a2.41,2.41,0,0,0-2.59-2.2l-377.65,30.2c-24.18,1.93-45.5-14.59-49.64-37.56-.25-1.47-.44-3-.56-4.44l-.28-3.55C323.83,837,338.69,817,360,811.1l-98.95-57.89a2.39,2.39,0,0,0-1.4-.32l-2.69.22a31.56,31.56,0,0,0-29,34Z"/><path class="cls-9" d="M742.06,799.93l-380.33,30.4"/><path class="cls-9" d="M743.52,818.19l-380.33,30.4"/><path class="cls-9" d="M745,836.41,364.65,866.82"/><path class="cls-9" d="M746.48,855.22,366.15,885.63"/><path class="cls-6" d="M735.44,788.6l0,.6.34,0Q735.62,788.89,735.44,788.6Z"/><path class="cls-10" d="M779.71,682.74a31.51,31.51,0,0,1-9.14,22.87L686.18,804l-1.67,1.94c-.88,1-1.76,2.07-2.65,3.1a45.67,45.67,0,0,1-32.53,14.5L264.8,831.18a1.73,1.73,0,0,1-1.77-1.7l-.1-5.33a1.73,1.73,0,0,1,1.69-1.76l379.45-7.56c24.25-.48,43.83-19,45.66-42.31.1-1.48.15-3,.12-4.48l-.07-3.55c-.51-25.61-22.07-46-48.15-45.44L262.71,726.6a1.73,1.73,0,0,1-1.76-1.7l-.11-5.67a1.72,1.72,0,0,1,1.11-1.65l155.92-59.14a1.94,1.94,0,0,1,.58-.12l329-6.55a31.58,31.58,0,0,1,32.23,31Z"/><path class="cls-2" d="M773.4,702.31l-2.83,3.3"/><path class="cls-3" d="M689.78,764.49l.07,3.55c0,1.5,0,3-.12,4.48-1.83,23.27-21.41,41.83-45.66,42.31L271,822.26l-1.91-95.79,372.56-7.42C667.71,718.53,689.27,738.88,689.78,764.49Z"/><path class="cls-11" d="M779.71,682.74a31.51,31.51,0,0,1-9.14,22.87L686.18,804l-1.67,1.94c-.88,1-1.76,2.07-2.65,3.1a45.67,45.67,0,0,1-32.53,14.5l-383.86,7.64a2.39,2.39,0,0,1-2.45-2.35l-.08-4a2.39,2.39,0,0,1,2.35-2.44l378.78-7.55c24.25-.48,43.83-19,45.66-42.31.1-1.48.15-3,.12-4.48l-.07-3.55c-.45-22.57-17.24-41-39.06-44.76l92.7-67.45a2.49,2.49,0,0,1,1.37-.45l2.69-.06a31.58,31.58,0,0,1,32.23,31Z"/><path class="cls-9" d="M269.47,746.64,651,739"/><path class="cls-9" d="M269.84,765l381.47-7.6"/><path class="cls-9" d="M270.2,783.23l381.48-7.59"/><path class="cls-9" d="M270.58,802.09l381.47-7.59"/><path class="cls-6" d="M274.94,734.71v.59h-.35C274.73,735.11,274.83,734.91,274.94,734.71Z"/><path class="cls-12" d="M169.5,584.82a35.9,35.9,0,0,0,12.69,25q52.86,51.51,105.74,103l2.09,2,3.32,3.25a52.05,52.05,0,0,0,38.38,13.14l437.05-30.37a2,2,0,0,0,1.83-2.1l-.42-6.06a2,2,0,0,0-2.11-1.83l-431.27,30c-27.56,1.91-51.65-17.15-56.1-43.37-.26-1.67-.47-3.36-.58-5.07l-.28-4c-2-29.12,20.36-54.39,50-56.45l430.67-29.92a2,2,0,0,0,1.83-2.1l-.45-6.45a2,2,0,0,0-1.43-1.76L577.56,520.5a1.92,1.92,0,0,0-.67-.07l-374,26a36,36,0,0,0-33.42,38.41Z"/><path class="cls-2" d="M178.65,606.38l3.54,3.45"/><path class="cls-3" d="M279.83,668.43l.29,4c.11,1.71.32,3.4.58,5.07,4.45,26.22,28.54,45.28,56.1,43.37l424.05-29.47-7.57-108.87L329.84,612C300.2,614.05,277.81,639.32,279.83,668.43Z"/><path class="cls-13" d="M169.5,584.82a35.9,35.9,0,0,0,12.69,25q52.86,51.51,105.74,103l2.09,2,3.32,3.25a52.05,52.05,0,0,0,38.38,13.14l437.22-30.38a1.79,1.79,0,0,0,1.67-1.91l-.45-6.41a1.79,1.79,0,0,0-1.91-1.67l-431.45,30c-27.56,1.91-51.65-17.15-56.1-43.37-.26-1.67-.47-3.36-.58-5.07l-.28-4c-1.79-25.65,15.38-48.31,39.76-54.76L207.32,546.43a1.73,1.73,0,0,0-1-.25l-3.36.23a36,36,0,0,0-33.42,38.41Z"/><path class="cls-5" d="M754.88,605.49,321.3,635.62"/><path class="cls-5" d="M756.32,626.31,322.75,656.43"/><path class="cls-5" d="M757.77,647.09,324.19,677.21"/><path class="cls-5" d="M759.25,668.52,325.68,698.65"/><path class="cls-6" d="M747.47,592.51l0,.68.4,0A6.75,6.75,0,0,1,747.47,592.51Z"/><path class="cls-14" d="M734.45,450.36a31.48,31.48,0,0,1-9.83,22.57Q681,520.81,637.29,568.71l-1.73,1.89c-.91,1-1.82,2-2.74,3a45.69,45.69,0,0,1-33,13.51l-384.58-4a1.72,1.72,0,0,1-1.71-1.74l.05-5.33a1.73,1.73,0,0,1,1.75-1.72l379.5,4c24.26.25,44.39-17.71,46.92-40.91.15-1.48.24-3,.26-4.47l0-3.56c.27-25.61-20.66-46.6-46.74-46.87l-379-4a1.73,1.73,0,0,1-1.72-1.75l.06-5.67a1.75,1.75,0,0,1,1.17-1.62l157.64-54.39a1.85,1.85,0,0,1,.58-.09l329.08,3.42a31.59,31.59,0,0,1,31.27,31.94Z"/><path class="cls-2" d="M727.55,469.72c-1,1.07-1.95,2.15-2.93,3.21"/><path class="cls-3" d="M642.08,529.34l0,3.55c0,1.51-.11,3-.26,4.47-2.53,23.21-22.66,41.17-46.92,40.91l-373.14-3.88,1-95.81,372.61,3.88C621.42,482.74,642.35,503.72,642.08,529.34Z"/><path class="cls-15" d="M734.45,450.36a31.48,31.48,0,0,1-9.83,22.57Q681,520.81,637.29,568.71l-1.73,1.89c-.91,1-1.82,2-2.74,3a45.69,45.69,0,0,1-33,13.51l-383.91-4a2.4,2.4,0,0,1-2.38-2.43l0-4a2.41,2.41,0,0,1,2.43-2.38l378.83,3.95c24.26.25,44.39-17.71,46.92-40.91.15-1.48.24-3,.26-4.47l0-3.56c.24-22.57-16-41.54-37.68-45.92l94.71-64.61a2.37,2.37,0,0,1,1.37-.41l2.7,0a31.59,31.59,0,0,1,31.27,31.94Z"/><path class="cls-9" d="M222.52,498.75l381.52,4"/><path class="cls-9" d="M222.32,517.07l381.53,4"/><path class="cls-9" d="M222.13,535.36l381.53,4"/><path class="cls-9" d="M221.94,554.22l381.52,4"/><path class="cls-6" d="M228.34,487v.6H228C228.12,487.39,228.23,487.19,228.34,487Z"/><path class="cls-16" d="M310,517.07a83.79,83.79,0,0,0-15,32.18c-7.21,32.17,7.55,58.33,11.67,65.11q-.43-9-.85-18.1L321.68,611c-3.8-8-12.88-30.07-7.47-57.54A91.25,91.25,0,0,1,330,517.51l-20-.44"/><path class="cls-17" d="M342.37,400.12c-7.47-.29-61.85-1.5-96.25,40-28.45,34.34-29.66,81.75-16.69,115.27C254,618.81,318.89,602.49,392.5,675.15c6.28,6.2,103.89,104.72,70.6,177.46C446.89,888,402,912.1,358.07,908.27c-51.18-4.45-88.14-45.58-97.28-83.21-8.69-35.74,12.91-46.94,7.71-85.76-6.28-46.93-41.43-57.4-80-110.86C177.94,613.85,115,528,135.09,453.82c25.26-93.35,168.42-119,174.63-120.08"/><path class="cls-18" d="M470,817.9a155.57,155.57,0,0,1-45.87,22.29c-47.21,13.9-88,1.07-104.23-5.05,8.19,1.37,56.61,8.67,97-24.11,22.76-18.47,32.55-41.18,36.53-52.57a169.77,169.77,0,0,1,11.9,30.23A127.89,127.89,0,0,1,468.7,804,117.64,117.64,0,0,1,470,817.9Z"/><path class="cls-18" d="M423.28,710.72a97.92,97.92,0,0,1-15.58,17.56C382,751,351.12,753.93,337.82,754.34c6.25-1,41.2-7.27,59-37.79a72.1,72.1,0,0,0,9.09-27.06q5.17,5.89,10.44,12.38,3.62,4.47,7,8.85"/><path class="cls-18" d="M358.23,646.6c-5-3.43-10.33-6.9-16.1-10.32q-5.38-3.18-10.55-5.92A32.08,32.08,0,0,1,333,647c-2.81,14.8-16.95,26.85-35.77,30.93a96.14,96.14,0,0,0,61-31.33Z"/><path class="cls-18" d="M270.88,601.17a48.29,48.29,0,0,1-10.12,13c-11.34,10.24-24.47,12.1-29.7,12.54,2.05-.61,15.42-4.85,21.18-18.37a32,32,0,0,0,1.93-18.25,111.67,111.67,0,0,0,9.12,6.59C265.91,598.35,268.46,599.85,270.88,601.17Z"/><path class="cls-18" d="M229.43,555.42A36.33,36.33,0,0,1,186.38,566a33.79,33.79,0,0,0,37.74-28.75c.74,2.34,1.46,4.71,2.18,7.12Q228,550,229.43,555.42Z"/><path class="cls-18" d="M222.4,496.79a38.15,38.15,0,0,1-23,7.25c-17.8-.44-28.3-13.88-29.7-15.73a46.6,46.6,0,0,0,56.85-11.46c-.78,2.55-1.52,5.28-2.17,8.2A110.85,110.85,0,0,0,222.4,496.79Z"/><path class="cls-18" d="M246.12,440.15A33.39,33.39,0,0,1,225,434.48c-10.27-7.24-15.41-20.48-13.52-34.19a38.73,38.73,0,0,0,48.7,26c-1.69,1.43-3.43,3-5.18,4.63A124.09,124.09,0,0,0,246.12,440.15Z"/><path class="cls-18" d="M603.24,464.07l-371.72-1c-19.67,0-37.85-12.07-47.6-31.58a236.68,236.68,0,0,1-22-68.1,284.86,284.86,0,0,1-3-38.17c0-137.69,115.8-249.31,258.67-249.31S676.19,187.55,676.19,325.24a240.92,240.92,0,0,1-24.73,106.52C641.67,451.7,623.27,464.12,603.24,464.07Z"/><path class="cls-19" d="M578.21,364.26,563.06,356a39.86,39.86,0,0,1,.92,34.67q-4.65-5.49-9.31-11a72.48,72.48,0,0,1-9.49,56.7q-5-7.16-10-14.3a66.87,66.87,0,0,1-1.49,17.48,67.76,67.76,0,0,1-9.44,22.45l-16.11-4.32a58.4,58.4,0,0,1-8.65,39.67l-14.14-11a38.27,38.27,0,0,1-.57,18,38.8,38.8,0,0,1-11.2,18.13l-11.8-10.21a76.41,76.41,0,0,1-43.54,37,76,76,0,0,1-43.78-37l-11.78,10.21a38,38,0,0,1-9-12.18,39.13,39.13,0,0,1-2.74-24l-14.15,11a58.57,58.57,0,0,1-8.64-39.67L312,462.05a66.87,66.87,0,0,1-10.93-39.93q-5,7.14-10,14.3a72.35,72.35,0,0,1-9.49-56.7c-3.09,3.64-6.21,7.3-9.3,11a41.49,41.49,0,0,1-2.55-25.41,39,39,0,0,1,3.46-9.26l-15.15,8.25a203.41,203.41,0,0,1-7.75-33.07c-.93-6.24-2.07-16-2.29-42.29-.25-30.2,1.05-42.66.49-42.7t-.12.12c.5-5,1-8.56,1.25-10.41q22-113.24,44-226.41a215.61,215.61,0,0,1,80.31,71,162.4,162.4,0,0,1,81.07,0,216.21,216.21,0,0,1,80.35-71q22.63,113.73,45.32,227.44-3.37-16.5-7.39-31.79c0-.06,0-.16-.06-.21-.69-2.74-1.4-5.46-2.18-8.13.31,2.36,10.7,53.73,11.43,103.44A392,392,0,0,1,578.21,364.26Z"/><path class="cls-20" d="M578.21,364.25,563.06,356a39.77,39.77,0,0,1,.92,34.67,41.37,41.37,0,0,0-7.5-16.7c-4.05-5.3-8.61-8-14.94-12.29s-11.65-6.48-25.31-15c-34.3-21.57-63.61-68.88-72.62-104.59-1.6-6.22-4.75-20.84-16.19-26.76a25.64,25.64,0,0,0-22.77,0c-11.32,5.86-14.6,20.18-16.07,25.86-8.86,34.3-37.51,83.41-72.77,105.49-8.5,5.32-17,10.63-25.86,15.37-4.84,2.6-8.67,4.49-12,8.75-5.22,6.65-5.8,14.73-5.62,19.91a40.24,40.24,0,0,1,.92-34.67l-15.15,8.24a300.7,300.7,0,0,1-8.67-40.5c-5-34.7-2.76-63.09.27-87.87,5.64-46.19,19.84-126.1,44-226.41A215.61,215.61,0,0,1,374,80.5a162.71,162.71,0,0,1,81.07,0,216.27,216.27,0,0,1,80.34-71C566,116.07,579.29,200.3,582,242.81a719.85,719.85,0,0,1,.1,83.12C581,341.6,579.48,354.73,578.21,364.25Z"/><path class="cls-21" d="M437.08,308.24c-5,0-11.64-1.23-16.68-6.65a22.76,22.76,0,0,1-5.74-13.88V262.29h3.15v25.33a20,20,0,0,0,5,12c7.44,8,19.16,5.26,20.48,4.93A23.69,23.69,0,0,0,455.18,297l2.46,1.85a26.74,26.74,0,0,1-13.54,8.55A29.24,29.24,0,0,1,437.08,308.24Z"/><path class="cls-21" d="M395.1,308.23a29.43,29.43,0,0,1-7-.81,26.74,26.74,0,0,1-13.54-8.55L377,297a23.62,23.62,0,0,0,11.92,7.56c1.31.33,13,3.06,20.48-4.93a20,20,0,0,0,5-12.12V262.29h3.16v25.33a22.84,22.84,0,0,1-5.74,14C406.75,307,400.1,308.23,395.1,308.23Z"/><path class="cls-22" d="M432.63,252.21l-13.34,13.33a4.51,4.51,0,0,1-6.39,0l-13.34-13.33a4.53,4.53,0,0,1,3.2-7.73h26.67A4.53,4.53,0,0,1,432.63,252.21Z"/><circle class="cls-23" cx="480.71" cy="201.5" r="34.16"/><circle class="cls-22" cx="481.26" cy="201.11" r="22.45"/><circle class="cls-23" cx="473.71" cy="191.97" r="5.35"/><circle class="cls-23" cx="347.53" cy="201.5" r="34.16"/><circle class="cls-22" cx="348.07" cy="201.11" r="22.45"/><circle class="cls-23" cx="340.52" cy="191.97" r="5.35"/><path class="cls-18" d="M285,140l20.34-86a81.11,81.11,0,0,1,42.05,36c-4.61,2.11-9.36,4.54-14.2,7.36A168.38,168.38,0,0,0,285,140Z"/><path class="cls-18" d="M543.1,140,522.76,54a81.11,81.11,0,0,0-42.05,36c4.61,2.11,9.36,4.54,14.2,7.36A168.25,168.25,0,0,1,543.1,140Z"/><path class="cls-18" d="M374,80.53a66.53,66.53,0,0,0-12.36,28c-4.19,22.89,5.28,40.88,8.38,46.26a124,124,0,0,1,26.79-78.39c-3.58.37-7.43.9-11.49,1.64S377.5,79.6,374,80.53Z"/><path class="cls-18" d="M455.23,80.53a66.67,66.67,0,0,1,12.35,28c4.19,22.89-5.27,40.88-8.38,46.26a124,124,0,0,0-26.79-78.39c3.89.42,8,1,12.44,1.85C448.53,78.89,452,79.69,455.23,80.53Z"/><path class="cls-18" d="M427.69,75.92a333.11,333.11,0,0,1-13.9,92,259,259,0,0,1-12.54-92c3.46-.28,7.13-.46,11-.52,5.53-.08,10.7.13,15.45.51"/><path class="cls-24" d="M770.69,693.53c-2.15,1.69,3.52,13.58,10.16,22.48a75.3,75.3,0,0,0,20.58,18.79,68.34,68.34,0,0,0,6.79-2.55c2.7-1.19,3.78-1.87,6.21-2.88a49.09,49.09,0,0,1,7.13-2.34,213.81,213.81,0,0,1-30.73-19.23C779,698.91,772.51,692.09,770.69,693.53Z"/><path class="cls-25" d="M807.63,784.3A233.56,233.56,0,0,0,819.77,813l.87,1.73.92,1.7,1.85,3.38c1.32,2.2,2.57,4.44,4,6.57s2.82,4.27,4.25,6.38,3,4.12,4.61,6.09a138.22,138.22,0,0,0,10.19,11.29A117.69,117.69,0,0,0,857.92,860c2,1.54,4.07,3,6.17,4.56s4.27,3,6.44,4.77a35.07,35.07,0,0,1,6.21,6.16,24.24,24.24,0,0,1,4.07,8.26,29.63,29.63,0,0,1,1.09,8.94,31.43,31.43,0,0,1-1.59,8.71,63.15,63.15,0,0,1-7.57,14.76c-3,4.45-6,8.63-8.77,12.9a68.51,68.51,0,0,0-6.84,13.13,36.92,36.92,0,0,0-1.7,7,32.94,32.94,0,0,0-.11,7.16,34.42,34.42,0,0,0,1.5,7.1,40.62,40.62,0,0,0,3,6.74,58.78,58.78,0,0,0,9.2,12.08,117.22,117.22,0,0,0,11.66,10.3c-9.14-5-17.85-11.39-24.16-20.31a43.72,43.72,0,0,1-4-7.19,38.35,38.35,0,0,1-2.39-8,33.49,33.49,0,0,1-.44-8.43,42.27,42.27,0,0,1,1.51-8.3,56.85,56.85,0,0,1,3-7.75c1.16-2.49,2.51-4.83,3.86-7.14,2.73-4.61,5.69-8.94,8.34-13.28a58,58,0,0,0,6.44-13.09,24,24,0,0,0,1.18-6.62,21.6,21.6,0,0,0-.84-6.49,16.34,16.34,0,0,0-2.74-5.71,28.78,28.78,0,0,0-4.85-4.83c-3.77-3.11-8.22-6.1-12.33-9.52a122.08,122.08,0,0,1-30.33-36.95c-1.28-2.32-2.39-4.73-3.56-7.11l-1.61-3.62c-.54-1.21-1.07-2.42-1.52-3.66A159.59,159.59,0,0,1,807.63,784.3Z"/><path class="cls-26" d="M793.55,829.45c10.61,8.48,47.69,1.58,58.24-21.32,9.25-20.08-4.9-46.06-7.27-50.66-9.66-18.8-20.84-26.1-19.32-41.08a30.36,30.36,0,0,1,2.74-9.78c-.46.46-1.17,1.16-2,2-8.34,8.84-11.21,16.17-12.8,15.64-.5-.16-1-1.13-.68-5a176.54,176.54,0,0,0-24.33-47.81,15.73,15.73,0,0,1,1.94,5.52,16.37,16.37,0,0,1-.57,7.13c-3.17,10.87-20.85,33.59-20.34,43.75.22,4.42,1.56,6,1.82,13.38a84.68,84.68,0,0,1-.82,15.14,28.94,28.94,0,0,0,1.26,14.16,31.13,31.13,0,0,0,3.65,7.36c9.81,15.74,14.71,23.61,13.88,31.39-.51,4.69-2.58,6.59-1.49,11.16A18.09,18.09,0,0,0,793.55,829.45Z"/><path class="cls-27" d="M807.94,809.58c7.9-20.23-.79-38.69-2.51-42.18a18.32,18.32,0,0,0-10.19-10.5c-1.19-.45-6.14-2.18-11.06-.35-6.94,2.58-11.57,11.5-10.26,21.77q6.45,20.1,12.92,40.2A16.14,16.14,0,0,0,790,826l3.59,3.42A49.83,49.83,0,0,0,807.94,809.58Z"/><path class="cls-25" d="M780.57,824.58h19.29a.2.2,0,0,1,.2.2v.57a1.89,1.89,0,0,1-1.89,1.89H781.64a1.66,1.66,0,0,1-1.66-1.66v-.41a.59.59,0,0,1,.59-.59Z" transform="translate(673.64 1962.9) rotate(-130.43)"/><ellipse class="cls-28" cx="858.89" cy="672.3" rx="32.88" ry="26.52" transform="translate(-177.68 332.88) rotate(-19.92)"/><path class="cls-26" d="M784.35,656.85c.08,11.75,10.75,28.66,13.49,33.28,5.82,9.79,11.88,24.74,12.54,47.17l11.09,6.5a40,40,0,0,1-1.77-17.89c2.07-15.54,12.95-24.71,15.78-27a103.25,103.25,0,0,1,8.36-13.25,101.9,101.9,0,0,1,12.54-14c-5.57-11.56-12.87-17.09-16.91-19.6-7-4.34-14.57-6.05-17.77-6.77-8.71-2-13.56-1.19-21.75-4.66a46.81,46.81,0,0,1-8.58-4.76l-2.07,1.16L787,642A42.89,42.89,0,0,0,784.35,656.85Z"/><rect class="cls-29" x="788.75" y="635.78" width="5.58" height="4.28" rx="2.14" transform="translate(695.13 1649.95) rotate(-123.42)"/><circle class="cls-30" cx="824.14" cy="660.97" r="2.83"/><circle class="cls-23" cx="822.2" cy="660.48" r="0.48"/><path class="cls-23" d="M810.07,659.18a19.86,19.86,0,0,1,3.29,4.7,21.5,21.5,0,0,1,1.87,5.46,21.08,21.08,0,0,1,.3,5.77,19.39,19.39,0,0,1-1.31,5.59,29.89,29.89,0,0,0,.7-5.62,26.17,26.17,0,0,0-.47-5.59,27.32,27.32,0,0,0-1.64-5.35A29.68,29.68,0,0,0,810.07,659.18Z"/><path class="cls-23" d="M808.77,659.35A11.24,11.24,0,0,1,810.4,663a12.07,12.07,0,0,1,.34,4,11.9,11.9,0,0,1-1,3.9,10.9,10.9,0,0,1-2.26,3.29,18.25,18.25,0,0,0,1.69-3.51,15.12,15.12,0,0,0,.8-3.75,15.78,15.78,0,0,0-.14-3.82A19.47,19.47,0,0,0,808.77,659.35Z"/><path class="cls-23" d="M807.15,659.18a9.47,9.47,0,0,1,.7,3.92,9.66,9.66,0,0,1-1,3.93,10.31,10.31,0,0,1-2.49,3.18,10.17,10.17,0,0,1-3.45,2,15.61,15.61,0,0,0,3-2.43,12.56,12.56,0,0,0,2.2-3.08,11.71,11.71,0,0,0,1.08-3.63A13.61,13.61,0,0,0,807.15,659.18Z"/><path class="cls-26" d="M870,659.28c1.13.32,19.62,6.1,22.49,22.61a27,27,0,0,1-3.62,18.18c-6.12,10.12-17.92,14.36-28,13.82C845.08,713,836.44,700.4,835.48,699c2.44-5.83,4.84-12.09,7.13-18.78,2.41-7,4.43-13.77,6.13-20.15A35.38,35.38,0,0,1,870,659.28Z"/><path class="cls-25" d="M850.48,670.33a25.85,25.85,0,0,1-8,19.81c8.1,9.63,19.94,11.47,26.29,6.69a14.61,14.61,0,0,0,5-14.78c-1.74-6.47-8.11-9.18-10.86-10.29A24.45,24.45,0,0,0,850.48,670.33Z"/><path class="cls-27" d="M805.51,701.33c-1.79-11.85-5.89-12.42-14.19-34.81a121.34,121.34,0,0,1-5.61-20.42,38.69,38.69,0,0,0-1.36,10.75c0,3.26.64,5.31,1.62,10.49,0,0,.45,2.36,2.08,12.35,2.19,13.4-16.68,25.2-21,48.23-3.08,16.54,2.12,34.83,4.34,42.64.92,3.24,1.83,5.9,2.5,7.76l31.51-10.92a79.56,79.56,0,0,1-5-23.81C799.41,722.41,808,717.88,805.51,701.33Z"/><path class="cls-31" d="M534.35,740.52A83.86,83.86,0,0,0,520,773c-6.51,32.33,8.83,58.15,13.09,64.85q-.61-9-1.25-18.09l16.21,14.34c-4-7.94-13.53-29.78-8.72-57.36a91.13,91.13,0,0,1,15-36.24H534.35"/><path class="cls-17" d="M162.33,284.37c.84-4.87,1.87-10,3.16-15.38,1.18-4.94,2.46-9.61,3.79-14,2.43,1,5,1.94,7.73,2.79a101.68,101.68,0,0,0,35.23,4.48,112.75,112.75,0,0,1-33.31,17.94,111.27,111.27,0,0,1-16.6,4.17"/><path class="cls-17" d="M161.08,356.58c-.56-4-1-8.29-1.4-12.72-.49-5.83-.74-11.38-.81-16.61,2.63.26,5.37.42,8.2.47a105.23,105.23,0,0,0,46-10.12,182.79,182.79,0,0,1-37.74,31.06C170.43,351.67,165.67,354.29,161.08,356.58Z"/><path class="cls-17" d="M672.73,284.89c-.84-4.87-1.87-10-3.16-15.38-1.18-4.94-2.46-9.61-3.79-14-2.43,1-5,1.93-7.73,2.79a102.16,102.16,0,0,1-35.23,4.48,112.87,112.87,0,0,0,33.31,17.94,111.27,111.27,0,0,0,16.6,4.17"/><path class="cls-17" d="M674,357.1c.56-4,1-8.29,1.4-12.72.49-5.83.74-11.38.81-16.62-2.63.27-5.37.43-8.2.48a105.37,105.37,0,0,1-46-10.13,182.8,182.8,0,0,0,37.74,31.07C664.63,352.18,669.39,354.81,674,357.1Z"/><path class="cls-32" d="M846.85,803.45a18.23,18.23,0,0,0-3.91.69,4.38,4.38,0,0,1-3.27-.23c-.48-.29-1.21-1-1.1-1.62s1-1.06,2.89-1.92l.75-.34c1-.45,3.46-1.58,4-3.73a3.77,3.77,0,0,0-1.05-3.65,3.64,3.64,0,0,0-2.36-.8,5.44,5.44,0,0,0-2.31.61,10.92,10.92,0,0,0-3.77,2.69,8.4,8.4,0,0,0-2,3.39,7.54,7.54,0,0,0-.2,3.46,6.14,6.14,0,0,0,3.45,4.64,8.2,8.2,0,0,0,3,.89,9.2,9.2,0,0,0,5.25-1.13c1.56-.75,1.73-1.26,1.75-1.52a1.41,1.41,0,0,0-.63-1.3A1.14,1.14,0,0,0,846.85,803.45Zm-9-4.26c-.41-.48.84-2.59,2.61-3.49.56-.28,1.64-.71,2-.34s-.44,1.61-.5,1.7a4.48,4.48,0,0,1-1.4,1.26C839.94,798.66,838.19,799.62,837.82,799.19Z"/><rect class="cls-32" x="838.86" y="783.52" width="2.19" height="6.36" rx="1.08" transform="translate(-124.15 158.27) rotate(-10.03)"/><rect class="cls-32" x="843.87" y="783.7" width="2.19" height="6.36" rx="1.08" transform="translate(319.59 -241.29) rotate(19.97)"/><rect class="cls-32" x="834.47" y="785.36" width="2.19" height="6.36" rx="1.08" transform="translate(1982.54 854.96) rotate(139.97)"/><rect class="cls-32" x="831.71" y="789.17" width="2.19" height="6.36" rx="1.08" transform="translate(1879.62 317.41) rotate(112.02)"/><rect class="cls-32" x="847.77" y="786.33" width="2.19" height="6.36" rx="1.08" transform="translate(866.03 -369.63) rotate(47.92)"/><path class="cls-17" d="M216.58,446.45a4.28,4.28,0,0,1-.92-2.67h0a7.57,7.57,0,0,1,1.63-4.42h0a11.82,11.82,0,0,1,3.5-3.22h0a5.41,5.41,0,0,1,2.55-.82h0a2.63,2.63,0,0,1,.49,0h0a4.76,4.76,0,0,1,2.84,1.41h0c.12.13.23.27.33.4h0c.08-.85.17-1.91.26-3h0c.22-2.59.43-5.46.42-6.33h0v-.16h0a6.1,6.1,0,0,1-.24-1.44h0a1.66,1.66,0,0,1,.19-.87h0a1,1,0,0,1,.92-.52h0a2.16,2.16,0,0,1,2.18,2.13h0a2.33,2.33,0,0,1-.12.73h0s0,0,0,.09h0c0,.08,0,.19-.06.32h0c0,.27-.08.65-.13,1.09h0c-.1.9-.22,2.09-.33,3.4h0c-.2,2.4-.38,5.19-.44,7.27h0a2.7,2.7,0,0,1,.71.32h0a1.38,1.38,0,0,1,.51.73h0a2.2,2.2,0,0,1,.09.61h0a1.32,1.32,0,0,1-.27.86h0a1.62,1.62,0,0,1-.61.47h0a8.39,8.39,0,0,1-.79.29h0a9.53,9.53,0,0,1,.15,1.44h0a3.7,3.7,0,0,1-.07.81h0a1.48,1.48,0,0,1-.41.79h0a1,1,0,0,1-.69.27h-.15a2.28,2.28,0,0,1-1.08-.38h0a1.64,1.64,0,0,1-.58-.78h0a1.7,1.7,0,0,1-.1-.37h0c-.46.3-1.07.67-1.77,1.05h0a12.18,12.18,0,0,1-5.17,1.68h0a3.43,3.43,0,0,1-2.81-1.23Zm3.65-6.24a6.64,6.64,0,0,0-1.72,3.64h0a1,1,0,0,0,.23.69h0a1.15,1.15,0,0,0,.85.3h0a7.36,7.36,0,0,0,3-1.09h0c1.06-.58,2.18-1.31,3.26-2h0c-.05-.22-.12-.52-.22-.85h0a6.47,6.47,0,0,0-1-2.14h0a1.63,1.63,0,0,0-.93-.64h0l-.25,0h0a5.28,5.28,0,0,0-3.17,2.1Zm13.64,4.34a12.43,12.43,0,0,1-1.62-3.83h0a31.25,31.25,0,0,1-.9-6.17h0c0-.09,0-.17,0-.25h0a1.68,1.68,0,0,1,.31-1.06h0a1.13,1.13,0,0,1,.92-.46h0a.9.9,0,0,1,.24,0h0a1.63,1.63,0,0,1,1.24.79h0a2,2,0,0,1,.24.94h0v.75h0a26.59,26.59,0,0,0,.44,4.84h0a6.43,6.43,0,0,0,1,2.66h0c.26.3.44.37.63.37h0a.93.93,0,0,0,.42-.12h0a3.07,3.07,0,0,0,1.28-1.48h0a9.39,9.39,0,0,0,.7-2.41h0a23.77,23.77,0,0,0,.25-3.75h0s0-.07,0-.11h0a2,2,0,0,1,.22-1h0a1.4,1.4,0,0,1,1.27-.66h.1a1.33,1.33,0,0,1,.89.36h0a1.74,1.74,0,0,1,.41.63h0a2.32,2.32,0,0,1,.19.77h0v.13c0,.35-.11,1.87-.38,3.6h0a15.59,15.59,0,0,1-1.6,5.24h0a3.74,3.74,0,0,1-2.57,2h0a4.38,4.38,0,0,1-.51,0h0a3.86,3.86,0,0,1-3.17-1.87ZM246,447.26l-.24,0h0a1.68,1.68,0,0,1-1.16-.66h0a1.46,1.46,0,0,1-.26-.63h0l-.16,0h0a1.44,1.44,0,0,1-.89-.66h0v0l0,0a.69.69,0,0,1-.05-.18h0s0-.06,0-.09h0c0-.05,0-.12,0-.2h0q0-.24,0-.63h0c0-.53,0-1.25,0-2.07h0a55.09,55.09,0,0,1,.19-5.7h0a1.9,1.9,0,0,1-.45-1h0a.49.49,0,0,1,0-.12h0a1.43,1.43,0,0,1,.42-.95h0a2.47,2.47,0,0,1,.49-.42h0c0-.08,0-.18.06-.29h0c.08-.36.18-.87.29-1.45h0a23.71,23.71,0,0,0,.39-3.86h0a1.15,1.15,0,0,0,0-.19h0a3,3,0,0,0-.12-.54h0a4,4,0,0,1-.17-.94h0a1.42,1.42,0,0,1,.29-.91h0a1.52,1.52,0,0,1,1-.49h.13a1.29,1.29,0,0,1,.82.32h0a2.19,2.19,0,0,1,.53.67h0a4.45,4.45,0,0,1,.51,2h0v.2h0a10.67,10.67,0,0,1-.27,2.44h0c-.13.66-.3,1.4-.48,2.44h0a11.66,11.66,0,0,1,3.38.47h0a5.58,5.58,0,0,1,3.6,2.81h0a2.26,2.26,0,0,1,.24,1h0a4.92,4.92,0,0,1-.81,2.47h0a16.91,16.91,0,0,1-1.79,2.39h0a44.85,44.85,0,0,1-3.64,3.56h0c-.2.19-.36.33-.38.36h0a3,3,0,0,0-.27.34h0a1.26,1.26,0,0,1-.42.46h0a1.22,1.22,0,0,1-.54.15h0Zm-.16-7.11a31.11,31.11,0,0,0,.22,3.44h0c.29-.23.62-.51,1-.83h0a19.93,19.93,0,0,0,3-3.18h0a3.67,3.67,0,0,0,.8-1.85h0a1,1,0,0,0-.09-.37h0a2.43,2.43,0,0,0-1.44-.91h0a8.47,8.47,0,0,0-2.6-.36h0l-.56,0h0c0,.21-.08.46-.12.76h0a24.1,24.1,0,0,0-.25,2.67h0v.61Zm10.66,7.77a1.92,1.92,0,0,1-1-.36h0a1.21,1.21,0,0,1-.46-.71h0a5.49,5.49,0,0,1-.15-.82h0a22.41,22.41,0,0,1-.12-2.41h0c0-3.69.31-9.39.52-12.71h0c.1-1.68.17-3.11.24-4.23h0a12.69,12.69,0,0,1,.3-2.44h0a1.11,1.11,0,0,1,.28-.5h0a1.58,1.58,0,0,1,1-.46h0a1.89,1.89,0,0,1,1.32.66h0a1.61,1.61,0,0,1,.35.58h0a2.41,2.41,0,0,1,.09.72h0a27.36,27.36,0,0,1-.27,2.93h0c-.17,1.47-.41,3.57-.69,6.61h0c-.21,2.38-.3,4.8-.28,6.9h0a35.67,35.67,0,0,0,.19,3.58h0c0,.14,0,.3,0,.49h0a4.86,4.86,0,0,1-.07.9h0a1.74,1.74,0,0,1-.45.94h0a1.13,1.13,0,0,1-.79.34h0Zm4.72-2.07.27-.59-.28.59a4.34,4.34,0,0,1-1.78-1.84h0a6.55,6.55,0,0,1-.81-3.06h0a6.26,6.26,0,0,1,.48-2.49h0a14.45,14.45,0,0,1,2.48-4.3h0a4.47,4.47,0,0,1,2.79-1.58h.25a4.4,4.4,0,0,1,2.69,1h0a5.78,5.78,0,0,1,2.05,3.66h0a7.53,7.53,0,0,1,.12,1.23h0a7.56,7.56,0,0,1-2.42,5.55h0a7.19,7.19,0,0,1-4.53,2.11h0a3,3,0,0,1-1.31-.27Zm3.66-10.28a1,1,0,0,0-.21.08h0a3.25,3.25,0,0,0-.81.52h0a8,8,0,0,0-2.23,3.86h0a2.68,2.68,0,0,0-.11.86h0a3.72,3.72,0,0,0,.33,1.53h0a1.41,1.41,0,0,0,.75.8h0a.9.9,0,0,0,.25,0h0a3.28,3.28,0,0,0,1.77-.85h0a4.93,4.93,0,0,0,1.34-1.56h0v0a6.15,6.15,0,0,0,.72-2.67h0a3.61,3.61,0,0,0-.39-1.59h0a2.27,2.27,0,0,0-.53-.8h0a1.37,1.37,0,0,0-.54-.24h0l-.3.05h0Zm-.17-.15.05-.5-.05.5Zm-59.56,4.81a10.49,10.49,0,0,1,1.91-2.28,12.5,12.5,0,0,1,5.25-2.51l.93.08a3.9,3.9,0,0,1,2.06,1,2.34,2.34,0,0,1,.5,2.36,4,4,0,0,1-2,2.6,9.07,9.07,0,0,1-3.51,1.29c-1.26.19-2,.42-2.09.69s0,.6.48,1a7.83,7.83,0,0,0,3.23,1.06,14.4,14.4,0,0,0,4.24.25,15.58,15.58,0,0,0,2.77-.56c.72-.24,1.5.52,1.9.46s.68.18.86.72c-.82.9-1.89.63-2.77,1a15.35,15.35,0,0,1-3.25.86,19,19,0,0,1-4.61.11l-1.08-.14a13.1,13.1,0,0,1-3.83-1.28,4.74,4.74,0,0,1-1.43-1.38,4.59,4.59,0,0,1-.54-2.15A8,8,0,0,1,205.18,440.23Zm2.92.94a10.39,10.39,0,0,0,3.44-1.11c.6-.41.89-.82.86-1.23s-.48-.46-1.36-.14a4.76,4.76,0,0,0-1.86,1.09A12.94,12.94,0,0,0,208.1,441.17Z"/><path class="cls-17" d="M264.13,456.87a13.22,13.22,0,0,1-6.65-3.16h0a1.07,1.07,0,0,1-.36-.76h0a.59.59,0,0,1,0-.19h0a1.51,1.51,0,0,1,.43-.84h0a1.63,1.63,0,0,1,.87-.43h.17a1.25,1.25,0,0,1,.85.34h0a8.46,8.46,0,0,0,1.84,1.19h0a14.31,14.31,0,0,0,2.13.85h0a15.73,15.73,0,0,0,3.33.6h0c.37,0,.74,0,1.11,0h0a13.12,13.12,0,0,0,2.25-.24h0a13.29,13.29,0,0,0,2.86-.91h0a6.44,6.44,0,0,0,2.91-3.31h0a17.74,17.74,0,0,0,.84-5.47h0c-.19.26-.38.51-.59.75h0a6.4,6.4,0,0,1-1.23,1.09h0a4.64,4.64,0,0,1-1.86.77h0a2.09,2.09,0,0,1-.34,0h0a1.94,1.94,0,0,1-.88-.19h0a3.14,3.14,0,0,1-.93-.64h0a4.5,4.5,0,0,1-1.25-3h0c0-.11,0-.22,0-.33h0a7.71,7.71,0,0,1,.6-3.08h0a18.69,18.69,0,0,1,1.6-3.12h0a14.14,14.14,0,0,1,.84-1.17h0a12.42,12.42,0,0,1,1.5-1.62h0a8.53,8.53,0,0,1,1.88-1.32h0a3,3,0,0,1,1.35-.37h0a3,3,0,0,1,.73.09h0a1.3,1.3,0,0,1,.41.19h0a.48.48,0,0,1,.19.37h0a.22.22,0,0,1,0,.08h0a1.27,1.27,0,0,1-.33.64h.1a2.42,2.42,0,0,1,.45,0h0c.78.11,1.29.57,1.29,1.25h0a.4.4,0,0,1,0,.11h0c-.09,1.84-.18,3.67-.28,5.51h0c-.09,1.84-.28,3.67-.48,5.5h0a20.42,20.42,0,0,1-.92,4.62h0a9.15,9.15,0,0,1-.93,1.95h0a8.26,8.26,0,0,1-2.55,2.44h0a12.62,12.62,0,0,1-3.36,1.47h0a16.07,16.07,0,0,1-3.81.54h0a18.82,18.82,0,0,1-3.76-.33Zm12.75-21.76a7.17,7.17,0,0,0-.59.63h0c-.19.25-.4.51-.62.78h0a8.87,8.87,0,0,0-1,1.55h0c-.27.53-.53,1.07-.79,1.62h0a8.28,8.28,0,0,0-1,3.43h0v0h0a4,4,0,0,0,.12,1h0c.07.2.14.27.2.29h0l.05,0h0a.6.6,0,0,0,.16-.14h0a4.15,4.15,0,0,0,.51-.64h0a16.36,16.36,0,0,0,1.45-2.81h0a25.27,25.27,0,0,0,1.05-3h0c.27-1,.55-2,.84-3h0c-.13.1-.25.21-.35.3Z"/><path class="cls-17" d="M283.14,446.84a6.81,6.81,0,0,1-2.21-2h0a.94.94,0,0,1-.2-.57h0a1.14,1.14,0,0,1,.07-.41h0a1.86,1.86,0,0,1,.58-.8h0a1.74,1.74,0,0,1,.88-.38h.12a.92.92,0,0,1,.78.41h0a4.77,4.77,0,0,0,1.34,1.21h0a1,1,0,0,0,.56.18h0a.85.85,0,0,0,.63-.34h0s0,0,0-.06h0l.06-.14h0a1.69,1.69,0,0,0,.09-.65h0v0h0a3,3,0,0,0-.24-1h0a3.37,3.37,0,0,0-1-1.21h0a8.81,8.81,0,0,0-.85-.62h0a3.83,3.83,0,0,1-.85-.76h0a3.07,3.07,0,0,1-.76-2h0a3.63,3.63,0,0,1,.05-.65h0a4.2,4.2,0,0,1,1.63-2.78h0a7.41,7.41,0,0,1,2.86-1.43h0a.83.83,0,0,1,.22,0h0a.84.84,0,0,1,.66.29h0a1,1,0,0,1,.27.65h0a1.48,1.48,0,0,1,0,.21h0a1.73,1.73,0,0,1-1.07,1.31h0a4.21,4.21,0,0,0-.8.49h0a3.52,3.52,0,0,0-.76.73h0a1.56,1.56,0,0,0-.32.8h0v.06h0a.87.87,0,0,0,.38.65h0c.31.26.63.5,1,.72h0a4.84,4.84,0,0,1,.95.86h0a10.69,10.69,0,0,1,1,1.36h0a4.18,4.18,0,0,1,.56,1.62h0a3.48,3.48,0,0,1,0,.55h0a4.79,4.79,0,0,1-.48,2.22h0a3.49,3.49,0,0,1-2.12,1.83h0a3.9,3.9,0,0,1-1.19.22h0a3.52,3.52,0,0,1-1.82-.48Zm2.75-2.68v0Zm-.09-.07-.05,0,.05,0Z"/><path class="cls-17" d="M280.13,427.9c.21-.32.43-.62.89-.57a.68.68,0,0,1,.63.74,1.51,1.51,0,0,1-.25.63l-1.18,1.84c-.2.31-.43.61-.88.57a.69.69,0,0,1-.64-.74,1.42,1.42,0,0,1,.26-.63Z"/><path class="cls-17" d="M275.92,427.63a1,1,0,0,1,.37-1,.69.69,0,0,1,.95.21,1.43,1.43,0,0,1,.17.66l.17,2.17a.92.92,0,0,1-.36,1,.68.68,0,0,1-1-.2,1.45,1.45,0,0,1-.18-.66Z"/><path class="cls-17" d="M272.44,428.85a.94.94,0,0,1-.05-1.05.69.69,0,0,1,1-.19,1.46,1.46,0,0,1,.41.54l1,1.94a.94.94,0,0,1,.05,1.05.68.68,0,0,1-1,.19,1.38,1.38,0,0,1-.42-.54Z"/><path class="cls-17" d="M272.39,431.66c.33.2.63.41.61.87a.69.69,0,0,1-.71.67,1.32,1.32,0,0,1-.63-.23l-1.89-1.09c-.32-.19-.63-.41-.6-.86a.68.68,0,0,1,.7-.68,1.47,1.47,0,0,1,.64.23Z"/><path class="cls-17" d="M283,430.24a.91.91,0,0,1,1-.16.68.68,0,0,1,.29.93,1.39,1.39,0,0,1-.49.47l-1.81,1.21a.91.91,0,0,1-1,.16.69.69,0,0,1-.29-.93,1.49,1.49,0,0,1,.49-.48Z"/><path class="cls-33" d="M723.4,733.4,704,754.19l28.37.19Z"/><path class="cls-34" d="M840.62,702.11l-4.45-10.45-110.54,47a6.37,6.37,0,0,0-1.37,2.59,6.18,6.18,0,0,0,.22,3.91l.13.32a6.25,6.25,0,0,0,2.73,2.88,6.44,6.44,0,0,0,2.74.75Z"/><path class="cls-35" d="M704,754.19l26.16-5,2.21,5.2Z"/><rect class="cls-36" x="838.02" y="683.62" width="9.51" height="22.8" transform="translate(-204.78 385.25) rotate(-23.04)"/><rect class="cls-37" x="846.51" y="678.61" width="16.1" height="22.8" rx="8.05" transform="translate(-201.88 389.46) rotate(-23.04)"/><path class="cls-38" d="M704,754.19l21.66-15.59c-.74-1.73-1.48-3.47-2.21-5.2Z"/><path class="cls-39" d="M840.61,702.09l-110.54,47a3.12,3.12,0,0,0-.79,4.13,3,3,0,0,0,3,1.15l110.54-47Z"/><path class="cls-40" d="M839.93,700.48l-3-7.13-112.63,47.9a6.18,6.18,0,0,0,.22,3.91l.13.32a6.25,6.25,0,0,0,2.73,2.88Z"/><rect class="cls-41" x="841.36" y="700" width="9.51" height="5.73" transform="translate(-207.58 387.18) rotate(-23.04)"/><rect class="cls-42" x="834.67" y="684.29" width="9.51" height="5.73" transform="matrix(0.92, -0.39, 0.39, 0.92, -201.97, 383.32)"/><path class="cls-43" d="M850.23,695h15.32a.39.39,0,0,1,.39.39v0a5.34,5.34,0,0,1-5.34,5.34H850.23a.39.39,0,0,1-.39-.39v-5A.39.39,0,0,1,850.23,695Z" transform="translate(-204.68 391.4) rotate(-23.04)"/><path class="cls-44" d="M843.55,679.28h10.36a5.34,5.34,0,0,1,5.34,5.34v0a.39.39,0,0,1-.39.39H843.55a.39.39,0,0,1-.39-.39v-5a.39.39,0,0,1,.39-.39Z" transform="translate(-199.07 387.53) rotate(-23.04)"/><path class="cls-45" d="M836.18,691.66l-110.54,47a3.13,3.13,0,0,1-3.53-2.29,3,3,0,0,1,1.28-3l110.54-47Z"/><path class="cls-40" d="M709.12,752a5.78,5.78,0,0,0-1.39-1.85l-3.78,4,5.73,0A5.64,5.64,0,0,0,709.12,752Z"/><path class="cls-26" d="M761.34,694.76c-2.54,2,5.16,17.08,13.86,28.46a105.28,105.28,0,0,0,26.41,24.31,74.67,74.67,0,0,0,8.16-2.89c3.23-1.35,4.51-2.15,7.44-3.31a54.54,54.54,0,0,1,8.59-2.6,291.21,291.21,0,0,1-38.89-25.31C771.87,701.84,763.48,693.06,761.34,694.76Z"/></svg>